<svg xmlns="http://www.w3.org/2000/svg" version="1.1" xmlns:xlink="http://www.w3.org/1999/xlink" xmlns:svgjs="http://svgjs.dev/svgjs" width="1920" height="1080" preserveAspectRatio="none" viewBox="0 0 1920 1080"><g mask="url(&quot;#SvgjsMask1105&quot;)" fill="none"><rect width="1920" height="1080" x="0" y="0" fill="#0e2a47"></rect><path d="M-10.04 1009.79 a226.64 226.64 0 1 0 453.28 0 a226.64 226.64 0 1 0 -453.28 0z" fill="rgba(28, 83, 142, 0.4)" class="triangle-float3"></path><path d="M1263.8927602420677 1125.371133970241L1245.9537453708772 868.8312693231544 989.4138807237904 886.7702841943449 1007.352895594981 1143.3101488414316z" fill="rgba(28, 83, 142, 0.4)" class="triangle-float1"></path><path d="M282.9599142084377 726.3853670194624L530.9914772881668 730.9512294483532 429.1840670820568 539.4793387053518z" fill="rgba(28, 83, 142, 0.4)" class="triangle-float3"></path><path d="M-94.62 21.86 a325.32 325.32 0 1 0 650.64 0 a325.32 325.32 0 1 0 -650.64 0z" fill="rgba(28, 83, 142, 0.4)" class="triangle-float2"></path><path d="M1360.482,486.114C1432.31,486.861,1498.412,447.677,1534.647,385.654C1571.211,323.068,1575.553,244.598,1537.687,182.791C1501.29,123.383,1430.076,98.098,1360.482,101.378C1296.624,104.387,1242.851,143.376,1210.022,198.232C1176.136,254.853,1161.919,323.615,1192.484,382.095C1225.183,444.659,1289.892,485.38,1360.482,486.114" fill="rgba(28, 83, 142, 0.4)" class="triangle-float2"></path><path d="M1730.122,955.31C1818.914,953.52,1870.501,862.253,1908.152,781.819C1939.219,715.452,1943.4,640.509,1907.346,576.714C1870.69,511.854,1804.544,470.251,1730.122,466.81C1648.914,463.055,1563.459,488.945,1522.041,558.898C1479.995,629.912,1500.851,716.185,1539.208,789.258C1581.222,869.298,1639.743,957.132,1730.122,955.31" fill="rgba(28, 83, 142, 0.4)" class="triangle-float2"></path><path d="M286.35 74.93 a311.51 311.51 0 1 0 623.02 0 a311.51 311.51 0 1 0 -623.02 0z" fill="rgba(28, 83, 142, 0.4)" class="triangle-float3"></path><path d="M56.305930054586455 879.4789478369304L132.92946474724607 1165.4418723654526 418.89238927576827 1088.818337672793 342.2688545831087 802.8554131442708z" fill="rgba(28, 83, 142, 0.4)" class="triangle-float2"></path><path d="M1109.1539284468136 318.0347898719237L874.2625969398432 147.37624807230426 703.6040551402239 382.2675795792746 938.4953866471941 552.926121378894z" fill="rgba(28, 83, 142, 0.4)" class="triangle-float3"></path><path d="M782.678249904738 15.76704369244814L553.831091539203-58.58990548744525 479.47414235930967 170.25725287808964 708.3213007248446 244.61420205798305z" fill="rgba(28, 83, 142, 0.4)" class="triangle-float1"></path><path d="M63.56767407250766 585.1228040235625L-60.804147912919035 689.4831539803804 43.556202043898836 813.8549759658071 167.9280240293255 709.4946260089891z" fill="rgba(28, 83, 142, 0.4)" class="triangle-float2"></path><path d="M-15.605,284.096C19.492,286.698,58.096,276.952,75.355,246.282C92.396,216,79.202,179.046,59.691,150.294C42.766,125.353,14.494,113.824,-15.605,112.239C-49.514,110.454,-89.074,112.14,-106.01,141.571C-122.924,170.964,-104.03,205.693,-85.865,234.33C-69.389,260.305,-46.281,281.822,-15.605,284.096" fill="rgba(28, 83, 142, 0.4)" class="triangle-float1"></path></g><defs><mask id="SvgjsMask1105"><rect width="1920" height="1080" fill="#ffffff"></rect></mask><style>
                @keyframes float1 {
                    0%{transform: translate(0, 0)}
                    50%{transform: translate(-10px, 0)}
                    100%{transform: translate(0, 0)}
                }

                .triangle-float1 {
                    animation: float1 5s infinite;
                }

                @keyframes float2 {
                    0%{transform: translate(0, 0)}
                    50%{transform: translate(-5px, -5px)}
                    100%{transform: translate(0, 0)}
                }

                .triangle-float2 {
                    animation: float2 4s infinite;
                }

                @keyframes float3 {
                    0%{transform: translate(0, 0)}
                    50%{transform: translate(0, -10px)}
                    100%{transform: translate(0, 0)}
                }

                .triangle-float3 {
                    animation: float3 6s infinite;
                }
            </style></defs></svg>