<?xml version="1.0" standalone="no"?>
<!DOCTYPE svg PUBLIC "-//W3C//DTD SVG 20010904//EN"
 "http://www.w3.org/TR/2001/REC-SVG-20010904/DTD/svg10.dtd">
<svg version="1.0" xmlns="http://www.w3.org/2000/svg"
 width="200.000000pt" height="200.000000pt" viewBox="0 0 200.000000 200.000000"
 preserveAspectRatio="xMidYMid meet">

<g transform="translate(0.000000,200.000000) scale(0.100000,-0.100000)"
fill="#000000" stroke="none">
<path d="M909 1567 c-104 -30 -190 -104 -237 -206 -22 -47 -27 -70 -26 -141 0
-72 4 -95 28 -146 128 -282 522 -281 653 1 23 51 28 73 28 145 0 76 -3 92 -32
151 -60 121 -170 196 -300 205 -40 2 -87 -2 -114 -9z m209 -113 c200 -99 189
-393 -17 -482 -47 -20 -156 -20 -202 0 -97 42 -160 138 -161 243 -1 153 110
265 262 265 51 0 78 -6 118 -26z"/>
<path d="M825 711 c-38 -11 -88 -27 -110 -36 -155 -66 -368 -284 -336 -343 23
-43 69 -34 96 17 21 42 111 138 162 172 58 40 147 83 208 100 72 20 255 18
328 -4 64 -20 93 -16 102 13 18 58 -71 92 -255 97 -100 2 -139 -1 -195 -16z"/>
<path d="M1591 650 c-95 -20 -196 -109 -227 -202 -51 -154 17 -318 161 -388
75 -36 190 -35 267 3 65 32 121 90 152 156 30 67 29 187 -4 256 -62 128 -211
203 -349 175z m97 -162 c7 -7 12 -31 12 -55 l0 -43 43 0 c47 0 67 -13 67 -45
0 -32 -20 -45 -67 -45 l-43 0 0 -43 c0 -47 -13 -67 -45 -67 -32 0 -45 20 -45
67 l0 43 -43 0 c-47 0 -67 13 -67 45 0 32 20 45 67 45 l43 0 0 43 c0 47 13 67
45 67 12 0 26 -5 33 -12z"/>
</g>
</svg>
